<svg xmlns="http://www.w3.org/2000/svg" xml:space="preserve" width="28" height="28" viewBox="0 0 7.408 7.408"><circle cx="3.704" cy="3.704" r="3.471" fill="none" stroke="#fff" stroke-linecap="round" stroke-width=".466"/><path fill="#fff" d="M4.931 3.336a1.61 1.61 0 0 0 .251.02 1.142 1.142 0 0 0 .824-.321l.123-.123a.21.21 0 1 0-.297-.297l-.03.03-1.038-1.04.03-.028a.21.21 0 0 0-.297-.297l-.123.122a1.134 1.134 0 0 0-.32.825 1.71 1.71 0 0 0 .22.824 1.321 1.321 0 0 1 .167.619.797.797 0 0 1-.115.426L3.312 3.083a.674.674 0 0 1 .216-.09l.804.803a.734.734 0 0 0 .01-.12 1.102 1.102 0 0 0-.038-.28l-.42-.42a1.327 1.327 0 0 1 .27.066 1.877 1.877 0 0 1-.165-.474 1.61 1.61 0 0 0-.257-.016 1.098 1.098 0 0 0-1.142 1.14 1.71 1.71 0 0 0 .22.826 1.321 1.321 0 0 1 .168.618.797.797 0 0 1-.116.427l-1.02-1.02a.68.68 0 0 1 .218-.09l.803.803a.714.714 0 0 0 .01-.12 1.102 1.102 0 0 0-.038-.28l-.418-.417a1.331 1.331 0 0 1 .268.063 1.88 1.88 0 0 1-.166-.474 1.587 1.587 0 0 0-.25-.02 1.134 1.134 0 0 0-.825.32l-.126.13a.21.21 0 0 0 .297.297l.03-.03 1.039 1.039-.03.03a.21.21 0 1 0 .297.297l.122-.124a1.134 1.134 0 0 0 .321-.825 1.71 1.71 0 0 0-.22-.824 1.321 1.321 0 0 1-.168-.618.797.797 0 0 1 .116-.428l1.02 1.02a.674.674 0 0 1-.217.09l-.804-.804a.734.734 0 0 0-.01.12 1.088 1.088 0 0 0 .038.279l.42.42a1.4 1.4 0 0 1-.27-.065 1.877 1.877 0 0 1 .165.474 1.61 1.61 0 0 0 .252.02 1.098 1.098 0 0 0 1.141-1.15 1.71 1.71 0 0 0-.22-.825 1.321 1.321 0 0 1-.167-.618.797.797 0 0 1 .115-.427l1.02 1.02a.703.703 0 0 1-.218.09l-.804-.803a.856.856 0 0 0-.008.12 1.102 1.102 0 0 0 .037.28l.42.418a1.253 1.253 0 0 1-.269-.064 1.884 1.884 0 0 1 .168.469z"/></svg>