<svg xmlns="http://www.w3.org/2000/svg" xml:space="preserve" width="28" height="28" viewBox="0 0 7.408 7.408"><path fill="#fff" d="M3.705 0A3.71 3.71 0 0 0 0 3.705a3.708 3.708 0 0 0 3.705 3.703 3.706 3.706 0 0 0 3.703-3.703A3.708 3.708 0 0 0 3.705 0zm.948 1.219a.21.21 0 0 1 .141.358l-.03.028 1.038 1.04.03-.03a.21.21 0 1 1 .297.297l-.123.123a1.142 1.142 0 0 1-.824.32 1.61 1.61 0 0 1-.251-.02 1.884 1.884 0 0 0-.168-.468 1.253 1.253 0 0 0 .268.064l-.419-.418a1.102 1.102 0 0 1-.037-.28.856.856 0 0 1 .008-.12l.804.803a.703.703 0 0 0 .218-.09l-1.02-1.02a.797.797 0 0 0-.115.427 1.321 1.321 0 0 0 .167.618 1.71 1.71 0 0 1 .22.825 1.098 1.098 0 0 1-1.14 1.15 1.61 1.61 0 0 1-.253-.02 1.877 1.877 0 0 0-.165-.474 1.4 1.4 0 0 0 .27.065l-.42-.42a1.088 1.088 0 0 1-.038-.279.734.734 0 0 1 .01-.12l.804.804a.674.674 0 0 0 .217-.09l-1.02-1.02a.797.797 0 0 0-.116.428 1.321 1.321 0 0 0 .168.618 1.71 1.71 0 0 1 .22.824 1.134 1.134 0 0 1-.32.825l-.123.124a.21.21 0 1 1-.297-.297l.03-.03-1.04-1.04-.03.03a.21.21 0 0 1-.296-.295l.126-.13a1.134 1.134 0 0 1 .825-.321 1.587 1.587 0 0 1 .25.02 1.88 1.88 0 0 0 .166.474 1.331 1.331 0 0 0-.268-.063l.418.417a1.102 1.102 0 0 1 .038.28.714.714 0 0 1-.01.12l-.803-.803a.68.68 0 0 0-.217.09l1.019 1.02a.797.797 0 0 0 .116-.427 1.321 1.321 0 0 0-.168-.618 1.71 1.71 0 0 1-.22-.825 1.098 1.098 0 0 1 1.142-1.141 1.61 1.61 0 0 1 .257.016 1.877 1.877 0 0 0 .165.474 1.327 1.327 0 0 0-.27-.065l.42.419a1.102 1.102 0 0 1 .038.28.734.734 0 0 1-.01.12l-.804-.803a.674.674 0 0 0-.216.09l1.014 1.013a.797.797 0 0 0 .115-.426 1.321 1.321 0 0 0-.167-.619 1.71 1.71 0 0 1-.22-.824 1.134 1.134 0 0 1 .32-.826l.123-.121a.21.21 0 0 1 .156-.061z" overflow="visible"/></svg>