<svg xmlns="http://www.w3.org/2000/svg" xml:space="preserve" width="28" height="28" viewBox="0 0 7.408 7.408"><path fill="#c9748f" d="M3.705.635a3.076 3.076 0 0 0-3.07 3.07 3.073 3.073 0 0 0 3.07 3.068 3.071 3.071 0 0 0 3.068-3.068A3.073 3.073 0 0 0 3.705.635zm0 1.527a.23.23 0 0 1 .229.229v1.084h1.084a.23.23 0 0 1 .228.23.23.23 0 0 1-.228.229H3.934v1.084a.23.23 0 0 1-.229.228.23.23 0 0 1-.23-.228V3.934H2.39a.23.23 0 0 1-.229-.229.23.23 0 0 1 .229-.23h1.084V2.39a.23.23 0 0 1 .23-.229z" overflow="visible"/></svg>