<svg xmlns="http://www.w3.org/2000/svg" xml:space="preserve" width="28" height="28" viewBox="0 0 7.408 7.408"><g fill="#fff"><path d="M3.705 0A3.71 3.71 0 0 0 0 3.705a3.708 3.708 0 0 0 3.705 3.703 3.706 3.706 0 0 0 3.703-3.703A3.708 3.708 0 0 0 3.705 0Zm0 .465a3.236 3.236 0 0 1 3.238 3.24 3.235 3.235 0 0 1-3.238 3.238 3.236 3.236 0 0 1-3.24-3.238 3.238 3.238 0 0 1 3.24-3.24z" overflow="visible"/><path d="M4.218 2.271 2.011 4.48l-.252 1.245 1.245-.25 2.208-2.209Zm-1.81 2.602-.15-.149 1.947-1.943.148.148Zm.35.35-.149-.148 1.947-1.943.148.148Zm3.193-2.697-.491.492-.994-.994.491-.492Z"/></g></svg>