<svg xmlns="http://www.w3.org/2000/svg" xml:space="preserve" width="28" height="28" viewBox="0 0 7.408 7.408"><path fill="#fff" d="M3.705 0A3.71 3.71 0 0 0 0 3.705a3.708 3.708 0 0 0 3.705 3.703 3.706 3.706 0 0 0 3.703-3.703A3.708 3.708 0 0 0 3.705 0Zm0 .465a3.236 3.236 0 0 1 3.238 3.24 3.235 3.235 0 0 1-3.238 3.238 3.236 3.236 0 0 1-3.24-3.238 3.238 3.238 0 0 1 3.24-3.24z" overflow="visible"/><path fill="none" stroke="#fff" stroke-linecap="round" stroke-linejoin="round" stroke-width=".7" d="m5.528 2.546-2.38 2.658-1.336-1.337"/></svg>